<?xml version="1.0" encoding="utf-8"?>
<!-- Generator: Adobe Illustrator 16.0.0, SVG Export Plug-In . SVG Version: 6.00 Build 0)  -->
<!DOCTYPE svg PUBLIC "-//W3C//DTD SVG 1.1//EN" "http://www.w3.org/Graphics/SVG/1.1/DTD/svg11.dtd">
<svg version="1.1" id="Layer_1" xmlns="http://www.w3.org/2000/svg" xmlns:xlink="http://www.w3.org/1999/xlink" x="0px" y="0px"
	 width="126px" height="126px" viewBox="0 0 126 126" enable-background="new 0 0 126 126" xml:space="preserve">
<g id="Logo">
	<path id="Red_Body" fill-rule="evenodd" clip-rule="evenodd" fill="#E2242D" d="M61.241,9.08c5.747-3.018,7.953,2.62,10.62,5.141
		c7.78,7.351,11.918,17.082,15.13,27.171c0.597,1.875,1.062,3.828,1.941,5.567c1.538,3.045,2.933,7.363,7.204,6.188
		c4.62-1.271,4.287-6.027,3.746-9.72c-1.774-12.111-8.104-21.914-16.949-30.757c3.619-0.954,5.352,1.264,7.102,3.016
		c21.791,21.812,22.982,62.084-0.828,85.07c-19.643,18.963-55.276,22.008-76.236,4.576C5.441,99.071,1.589,90.967,0.034,79.893
		c5.849,8.051,11.286,14.47,18.738,18.775c15.204,8.786,30.23,6.649,44.554-1.695c14.115-8.225,21.83-20.671,21.141-37.499
		c-0.701-17.069-5.645-32.581-17.302-45.478c-1.282-1.418-3.093-2.356-4.659-3.518C61.681,10.376,61.24,9.927,61.241,9.08z"/>
	<path id="Yellow_Body" fill-rule="evenodd" clip-rule="evenodd" fill="#FBC314" d="M61.241,9.08c0.42,0.467,0.84,0.934,1.262,1.4
		C46.494,27.496,39.459,47.521,43.189,70.732c1.447,9.002,6.939,16.12,13.837,21.948c2.865,2.422,2.731,3.804-0.812,4.85
		c-4.459,1.317-8.858,3.192-13.415,3.748c-8.448,1.029-11.085-6.682-14.563-11.756C13.73,68.362,17.64,34.06,36.025,16.18
		c1.845-1.795,3.561-4.059,7.56-3.662c-6.244,6.479-11.057,13.262-14.356,21.009c-2.193,5.147-3.248,10.419-2.09,16.054
		c0.43,2.091,1.57,3.307,3.347,3.941c1.877,0.671,3.283-0.712,4.296-1.901c2.393-2.811,3.802-6.151,4.837-9.735
		c3.328-11.52,8.523-22.008,17.538-30.258C58.365,10.522,59.342,9.069,61.241,9.08z"/>
	<path id="Yellow_Tail" fill-rule="evenodd" clip-rule="evenodd" fill="#FBC314" d="M125.967,80.364
		c-0.856,23.388-32.876,43.937-55.183,35.485c10.45-3.221,17.109-11.496,27.988-13.415
		C110.589,100.35,118.679,91.187,125.967,80.364z"/>
	<path id="Yellow_Head" fill-rule="evenodd" clip-rule="evenodd" fill="#FBC314" d="M89.888,41.482c0.67-2.5-0.328-6.381,2.88-5.714
		c4.929,1.025,4.95,6.063,5.328,10.105c0.204,2.171-0.099,5.811-3.048,5.042C90.461,49.72,91.066,44.717,89.888,41.482z"/>
	<path id="Red_Head" fill-rule="evenodd" clip-rule="evenodd" fill="#E2242D" d="M36.656,40.989
		c-0.866,3.971-0.62,9.038-5.473,10.106c-2.827,0.623-2.938-3.278-2.717-5.332c0.428-3.987,0.365-9.082,5.325-10.093
		C36.707,35.077,36.041,38.924,36.656,40.989z"/>
</g>
</svg>
