<svg version="1" xmlns="http://www.w3.org/2000/svg" width="1365.333" height="1365.333" viewBox="0 0 1024.000000 1024.000000"><path d="M520.7 66.6c-.1.1-2.2.4-4.7.7-4.3.5-15.3 4.1-17.5 5.7-.5.4-3.2 1-5.9 1.4-6.7.8-12 4.2-21.5 13.4-26.2 25.4-28.5 27.8-40.1 40.8C387.9 177.1 351.9 244 328.1 320c-18.4 58.7-24.8 73.1-42.8 95.7-10.1 12.7-17.7 18.7-25.8 20-1.6.3-3.2.5-3.5.6-1.7.4-9.3-1.8-13.7-3.9-11.3-5.4-19.4-17.1-21.9-31.4-.3-1.4-.7-3.2-.9-4-.4-1.3-.9-5.6-2-15.5-.5-4.2-.5-28.3 0-32.7.5-5.6 1.5-13 2-15.8.3-1.4.7-4.1 1-6 1.9-11.7 8.7-33.7 15.8-51 5.9-14.4 19.1-41.3 26.8-54.5 2.9-5 5.7-9.9 6.3-11 7.3-13 36.2-53.7 46.5-65.5 1.7-1.9 3.4-4 3.8-4.5 1.1-1.4 12-14.1 16.3-18.9 1.9-2.2 6.7-7.4 10.7-11.5 8.2-8.7 8-9.3-2.4-8.7-12.5.7-21.9 4.2-31.8 11.6-5.3 4-25.8 24-36.4 35.5-6 6.6-23.8 28.5-27.1 33.5-.8 1.2-3.3 4.7-5.5 7.8-2.3 3.2-6.7 10-10 15.2-3.2 5.2-6.5 10.6-7.4 12-9.8 15.8-25.8 49.4-34.7 73.3-8.3 22-20.5 64.3-22.8 78.9-.3 2.1-1 5.7-1.5 8-.5 2.4-1.2 6.1-1.5 8.3-.4 2.3-.8 5-1 6.2-.8 4-1.5 8.9-2.1 14.8-.4 3.3-.8 6.2-1 6.5-.1.3-.6 4.3-1 9s-.9 9.8-1.1 11.5c-1.6 16.2-2.1 50.1-1 70.5 1 17.6 2.3 33.8 3.1 37 .2.8.7 4 1 7 1.1 9.4 5.1 31.1 8 43.1.9 3.5 1.8 7.2 2 8.1 7.1 30.6 23.6 72.5 39.7 100.7 2.6 4.6 4.8 8.5 4.8 8.7 0 .2 4.6 7.5 10.3 16.1 5.7 8.7 13.9 21.6 18.2 28.8 8.4 13.9 15.8 25.3 21.3 32.5 7.1 9.5 23.3 25 26 25 .7 0 1.2.4 1.2.8 0 1.2 14.1 7.6 21 9.7 7.6 2.3 27.1 2.7 39 .9 11.9-1.9 34.3-7.4 48.1-12 5.8-1.9 11.4-3.6 12.5-3.9 1-.2 8.4-2.6 16.4-5.3 8-2.7 18.6-6.2 23.5-7.7 12.3-3.7 18.8-6.9 22.5-11.2 2.6-2.9 3.1-4.2 2.7-7.2-.8-7.5-4.8-12.3-23.7-28.7-60.3-52.7-95.6-110.9-105.1-173.4-.5-3.6-1.1-7.6-1.4-9-.2-1.4-.7-5-1-8-.4-3-.9-6.2-1-7-.1-.8-.6-5.1-1-9.5s-.8-8.7-1-9.5c-1.8-9.3-2.5-67.6-1.2-88.5 1.3-19.3 4.3-43.7 7.1-58 .2-1.1.7-4 1.1-6.5.4-2.5 1.5-8.1 2.5-12.5 1.1-4.5 2.1-9.2 2.3-10.6 1.2-6.6 7.6-28.4 13.3-45.5 25.6-77.1 70.3-150.5 132.6-217.8l4.6-5 11.4 7.5c20.5 13.7 27.9 20.9 47.8 45.9 5 6.3 9.7 12.3 10.5 13.3.8.9 1.5 2.1 1.5 2.6s.4 1.1.9 1.3c1.3.4 25.4 36.4 27 40.3.2.5 1.4 2.6 2.6 4.5 9.9 15.9 25.4 47.9 35.3 73 4.3 10.7 11.5 31.2 12.7 36 .3.8 1.6 5.3 3 10 1.5 4.7 2.8 9.2 3 10 .1.8 1.7 6.7 3.3 13 1.7 6.3 3.3 13.2 3.6 15.4.4 2.1.8 4.1 1 4.5.4.6 5 24.8 6.1 32.1.3 1.9.7 4.6 1 6 .2 1.4.7 4.5 1 7 .4 2.5.8 5.6 1 7 .3 2.3 1.1 8.7 2 17 2.6 23.3 3.9 46.1 3.9 68.5 0 16.9-.8 34.7-1.9 40.5-.1.8-.6 4-1 7-.3 3-1.3 9.3-2.2 14-.8 4.7-1.7 9.6-1.9 11-.3 1.4-2 8.3-3.9 15.5-18.3 70.2-61.3 130.6-125.5 176.3-6.3 4.5-12 8.6-12.5 9-.6.5-8 5-16.5 10.1s-16.2 9.6-17 10.1c-.8.5-6 3.2-11.5 6-5.5 2.9-10.7 5.6-11.5 6.1-10.4 5.9-49.1 21.3-66.5 26.4-4.9 1.4-11.3 3.3-14 4.1-2.8.8-6.4 1.7-8 2-1.7.3-7 1.4-12 2.4-9.2 1.9-13 2.6-20 3.5-2.2.3-4.9.7-6 1-8.7 1.8-49.4 2.5-64.2 1.2-6.9-.7-9.6-1-18-2.3-2.1-.3-5.4-.7-7.3-1-1.9-.2-4.2-.6-5-.9-.8-.2-3.1-.7-5-1-13.4-2.3-39-10.2-57.2-17.6-12.9-5.3-38.4-17.8-42.9-21-1.5-1-3-1.9-3.4-1.9-.8 0-29.6-18.9-30.5-19.9-.3-.4-3.6-3.1-7.5-6.1-31.4-24.3-65.8-61.9-103.9-113.3-8.5-11.5-10.3-13.4-9.2-10 .3 1 .8 3.8 1.1 6.3.3 2.5.7 5.6 1 7 .6 2.9 1 4.7 3 15.5C11 709.3 21.7 741.4 34 766c7.6 15.3 8.9 17.6 17.5 30.5 10.5 15.8 19 26.2 34.4 41.6 38.8 38.8 89 68.6 148.7 88.4 13 4.4 37.1 10.9 44.4 12.1 1.9.3 3.8.8 4.1.9.3.2 6.1 1.3 13 2.5 16.7 2.8 16.7 2.8 31.6 4.5 2.7.3 6.2.8 7.8 1 13.3 1.8 63.4 2.5 82 1.2 12.6-1 20.6-1.7 23.5-2.2 1.4-.2 5.4-.7 9-1 3.6-.4 7.2-.8 8-1 .8-.2 3.5-.7 6-1 5.8-.8 16.8-2.7 22.5-3.9 1.1-.3 5.4-1.2 9.5-2 8.7-1.9 29.2-7.1 36.5-9.3 8.2-2.5 34.8-11.4 38-12.8 1.7-.7 7.3-2.9 12.5-5 22.7-9 65-31.4 83-44 37.9-26.4 56.8-43.2 87.4-77.5 1.8-1.9 5.9-6.9 9.2-11 51.3-63.4 86.7-145.3 98.9-228.5.3-2.2.8-5.1 1-6.5.4-2.5.7-5.5 2-17.5.4-3.3.8-7.6 1.1-9.5 2.2-18.7 2.2-78.1-.1-89.8-.1-.9-.6-5.3-.9-9.7-.4-4.4-.9-8.9-1.1-10-.2-1.1-.7-4-1-6.5-.3-2.5-.7-5.6-.9-7-.2-1.4-.8-4.8-1.2-7.5-.4-2.8-.8-5.5-1-6-.3-1.4-1-5.2-1.9-10-1.2-6.4-1.2-6.6-3.4-16-14.9-65.6-43.9-128.5-83.8-181.7-4-5.4-8.3-10.9-9.5-12.4-12.5-14.8-17.2-20-31.2-34-14.1-14.1-17.1-16.5-24-20-7.6-3.7-8.5-3.9-17-3.8-9.3 0-14.6.5-14.6 1.3 0 .2 3.6 4 7.9 8.5 45.2 46.4 80.1 95.8 100.6 142.6 2.5 5.8 5.2 11.8 5.9 13.5 3.3 7.4 10.8 30 15.7 47.5 1.2 4.4 3.6 15.4 4.4 20 .3 1.9.8 4.2 1 5 .5 1.8 1.7 9.6 3.2 21 1 7 1 30.2.1 35.5-1.7 10.1-6.4 19.1-13.1 25.2-13.8 12.7-34.9 15.2-47.6 5.6-8.8-6.6-13.6-13.8-25.2-37.8-8.4-17.3-10.3-22.5-21.3-58-2.6-8.3-5.1-15.9-5.6-17-.5-1.1-1.9-4.9-3.1-8.5-3.1-9.4-13.8-37.7-16.4-43.5-1.2-2.8-4.4-10-7-16-6.6-15.1-18.8-38.6-27.5-53-6.4-10.6-18.5-29.1-20-30.5-.3-.3-2.7-3.4-5.4-7-8.6-11.3-16.4-20.1-30-34-7.2-7.4-16.9-18.1-21.4-23.8-18.7-23.1-29-30.3-44.9-31.6-1.8-.1-3.4-.1-3.6 0z"/><path d="M274.8 289.5c-.2.2-1.5.6-2.9.8-6 1.1-15.9 6.7-21 11.9-7.5 7.5-14 21.7-15.5 33.7-.3 2.5-.7 5.3-.9 6.1-.4 1.4-.8 4.9-1.9 15-.3 2.5-.8 8.5-1.1 13.5-.4 4.9-.8 9.9-.9 11-.8 5.2 1.5 18.8 3.9 24 4.4 9.3 10.5 11.9 21.3 9.1 8.9-2.2 13.8-5.1 20.2-11.5 9.8-9.8 15.3-25.7 19.5-56.1.4-2.5 1.1-6.5 1.6-8.8.6-2.9.6-6.4-.1-10.1-.6-3.1-1.2-8.2-1.5-11.2-1.2-13.8-4.3-22.4-9.2-25.6-2.2-1.5-10.5-2.7-11.5-1.8zM741.9 291.5c-3.1 1.7-5.2 4.6-6.7 9.5-1.1 3.5-1.6 7-2.7 21-.4 4.1-1 9.3-1.4 11.5-.4 2.5-.3 5.4.5 7.6 1 3.1 2.3 8.6 4.9 21.9.3 1.4.8 3.8 1.1 5.5 4.9 27.5 18.2 43.2 39 46.1 9.2 1.2 17-5.7 19.5-17.5 2.2-9.8 1.6-28.6-1.6-53.1-.3-1.9-.7-4.6-1-6-.3-1.4-.7-3.4-.9-4.5-4.5-22.4-16.9-37.2-35.1-42-7.3-1.9-12.2-1.9-15.6 0zM1019.3 659.3c-10.3 15-13.2 19.1-25.3 35.2-24.1 32-45.1 55.3-66.9 74.5-4.1 3.6-7.9 7-8.5 7.5-2 1.9-18 13.9-23.1 17.3-29.3 19.8-61.5 33.1-93.3 38.7-9.2 1.6-17.9 3.7-26.8 6.6-5.4 1.8-10.1 3.3-10.4 3.4-1.5.2-14 5.5-23.5 10-9.9 4.7-15.9 7.9-32 17-2.7 1.6-17.6 10.7-32.9 20.3-46.9 29.2-65.1 38.8-91.4 48.2-5.1 1.8-8.9 3.6-8.5 4.1 1.2 1.1 16.6 5.8 27.8 8.4 14.2 3.3 22.1 4.5 38 6 7.3.7 39.4.8 45 .1 2.2-.2 7.2-.7 11-1.1 3.9-.3 7.7-.8 8.5-1 .8-.2 3.7-.6 6.4-1 2.7-.3 5.2-.8 5.5-.9.3-.2 2.9-.7 5.6-1 2.8-.4 5.8-.9 6.7-1.2.9-.3 2.6-.7 3.7-.9 4-.9 5.7-1.3 13.9-3.4 8.1-2.1 23.1-6.6 26.2-7.8.8-.4 1.7-.7 2-.8.3-.1 1.4-.5 2.5-.9s3.4-1.3 5-1.9c19-6.7 49.3-21.3 69.1-33.2 11.1-6.7 34.9-22.7 36.4-24.4.3-.3 4.2-3.5 8.8-6.9 4.6-3.5 9.9-7.8 11.9-9.5 31.8-28.3 53.6-53.1 72.2-82.7 21.5-34.3 36.1-73.7 39.5-107 1.3-12.5 1.7-18 1.4-18-.2 0-2.2 2.8-4.5 6.3z"/></svg>